<?xml version="1.0" encoding="utf-8"?>
<!-- Generator: Adobe Illustrator 19.2.1, SVG Export Plug-In . SVG Version: 6.00 Build 0)  -->
<svg version="1.1" id="burger-icon" xmlns="http://www.w3.org/2000/svg" xmlns:xlink="http://www.w3.org/1999/xlink" x="0px"
	 y="0px" viewBox="0 0 92 92" style="enable-background:new 0 0 92 92;" xml:space="preserve">
<path id="bar-1" d="M77.8,10.5H13.3c-3.7,0-6.7,2.9-6.7,6.5s3,6.5,6.7,6.5h64.6c3.7,0,6.7-2.9,6.7-6.5S81.5,10.5,77.8,10.5z"/>
<path id="bar-2" d="M77.8,39.5H13.3c-3.7,0-6.7,2.9-6.7,6.5s3,6.5,6.7,6.5h64.6c3.7,0,6.7-2.9,6.7-6.5S81.5,39.5,77.8,39.5z"/>
<path id="bar-3" d="M77.8,68.5H13.3c-3.7,0-6.7,2.9-6.7,6.5s3,6.5,6.7,6.5h64.6c3.7,0,6.7-2.9,6.7-6.5S81.5,68.5,77.8,68.5z"/>
</svg>
